<svg xmlns="http://www.w3.org/2000/svg" xmlns:xlink="http://www.w3.org/1999/xlink" width="940" zoomAndPan="magnify" viewBox="0 0 705 591.000005" height="788" preserveAspectRatio="xMidYMid meet" version="1.0"><defs><clipPath id="e28fba717c"><path d="M 379 282 L 402.992188 282 L 402.992188 322.007812 L 379 322.007812 Z M 379 282 " clip-rule="nonzero"/></clipPath><clipPath id="126fc5d481"><path d="M 379 307 L 385 307 L 385 322.007812 L 379 322.007812 Z M 379 307 " clip-rule="nonzero"/></clipPath><clipPath id="a0255efc78"><path d="M 363 293 L 369 293 L 369 322.007812 L 363 322.007812 Z M 363 293 " clip-rule="nonzero"/></clipPath><clipPath id="d5fff825b5"><path d="M 328.328125 282 L 352 282 L 352 322.007812 L 328.328125 322.007812 Z M 328.328125 282 " clip-rule="nonzero"/></clipPath><clipPath id="5f791f926b"><path d="M 346 307 L 352 307 L 352 322.007812 L 346 322.007812 Z M 346 307 " clip-rule="nonzero"/></clipPath><clipPath id="51f623f5a1"><path d="M 326.394531 279 L 354 279 L 354 323.769531 L 326.394531 323.769531 Z M 326.394531 279 " clip-rule="nonzero"/></clipPath><clipPath id="cf2d634fa3"><path d="M 376 279 L 404.75 279 L 404.75 323.769531 L 376 323.769531 Z M 376 279 " clip-rule="nonzero"/></clipPath><clipPath id="f5e4c57895"><path d="M 343 284 L 387 284 L 387 323.769531 L 343 323.769531 Z M 343 284 " clip-rule="nonzero"/></clipPath><clipPath id="6d6adffe66"><path d="M 324.574219 246.886719 L 406.9375 246.886719 L 406.9375 275 L 324.574219 275 Z M 324.574219 246.886719 " clip-rule="nonzero"/></clipPath></defs><g clip-path="url(#e28fba717c)"><path fill="#553c46" d="M 400.496094 282.066406 C 399.121094 282.066406 398 283.1875 398 284.566406 L 398 298.742188 C 398 299.199219 397.628906 299.574219 397.167969 299.574219 L 379.699219 299.574219 L 379.699219 305.410156 L 397.167969 305.410156 C 397.628906 305.410156 398 305.78125 398 306.242188 L 398 319.582031 C 398 320.960938 399.121094 322.082031 400.496094 322.082031 C 401.875 322.082031 402.992188 320.960938 402.992188 319.582031 L 402.992188 284.566406 C 402.992188 283.1875 401.875 282.066406 400.496094 282.066406 Z M 400.496094 282.066406 " fill-opacity="1" fill-rule="nonzero"/></g><g clip-path="url(#126fc5d481)"><path fill="#553c46" d="M 379.699219 319.582031 C 379.699219 320.960938 380.820312 322.082031 382.195312 322.082031 C 383.570312 322.082031 384.691406 320.960938 384.691406 319.582031 L 384.691406 307.078125 L 379.699219 307.078125 Z M 379.699219 319.582031 " fill-opacity="1" fill-rule="nonzero"/></g><g clip-path="url(#a0255efc78)"><path fill="#553c46" d="M 363.0625 319.582031 C 363.0625 320.960938 364.179688 322.082031 365.558594 322.082031 C 366.933594 322.082031 368.050781 320.960938 368.050781 319.582031 L 368.050781 293.738281 L 363.0625 293.738281 Z M 363.0625 319.582031 " fill-opacity="1" fill-rule="nonzero"/></g><path fill="#553c46" d="M 384.691406 289.570312 C 384.691406 288.191406 383.570312 287.070312 382.195312 287.070312 L 348.917969 287.070312 C 347.542969 287.070312 346.421875 288.191406 346.421875 289.570312 C 346.421875 290.949219 347.542969 292.070312 348.917969 292.070312 L 382.195312 292.070312 C 383.570312 292.070312 384.691406 290.949219 384.691406 289.570312 Z M 384.691406 289.570312 " fill-opacity="1" fill-rule="nonzero"/><g clip-path="url(#d5fff825b5)"><path fill="#553c46" d="M 333.113281 298.742188 L 333.113281 284.566406 C 333.113281 283.1875 331.992188 282.066406 330.617188 282.066406 C 329.238281 282.066406 328.121094 283.1875 328.121094 284.566406 L 328.121094 319.582031 C 328.121094 320.960938 329.238281 322.082031 330.617188 322.082031 C 331.992188 322.082031 333.113281 320.960938 333.113281 319.582031 L 333.113281 306.242188 C 333.113281 305.78125 333.484375 305.410156 333.945312 305.410156 L 351.414062 305.410156 L 351.414062 299.574219 L 333.945312 299.574219 C 333.484375 299.574219 333.113281 299.199219 333.113281 298.742188 Z M 333.113281 298.742188 " fill-opacity="1" fill-rule="nonzero"/></g><g clip-path="url(#5f791f926b)"><path fill="#553c46" d="M 346.421875 319.582031 C 346.421875 320.960938 347.542969 322.082031 348.917969 322.082031 C 350.292969 322.082031 351.414062 320.960938 351.414062 319.582031 L 351.414062 307.078125 L 346.421875 307.078125 Z M 346.421875 319.582031 " fill-opacity="1" fill-rule="nonzero"/></g><g clip-path="url(#51f623f5a1)"><path fill="#e0a96d" d="M 351.847656 296.59375 L 335.320312 296.59375 L 335.320312 284.167969 C 335.320312 281.425781 333.097656 279.195312 330.363281 279.195312 C 327.628906 279.195312 325.40625 281.425781 325.40625 284.167969 L 325.40625 318.960938 C 325.40625 321.699219 327.628906 323.929688 330.363281 323.929688 C 333.097656 323.929688 335.320312 321.699219 335.320312 318.960938 L 335.320312 307.363281 L 343.582031 307.363281 L 343.582031 318.960938 C 343.582031 321.699219 345.808594 323.929688 348.542969 323.929688 C 351.273438 323.929688 353.5 321.699219 353.5 318.960938 C 353.5 318.371094 353.5 298.789062 353.5 298.25 C 353.5 297.335938 352.757812 296.59375 351.847656 296.59375 Z M 333.667969 304.046875 C 332.753906 304.046875 332.015625 304.789062 332.015625 305.703125 L 332.015625 318.960938 C 332.015625 319.871094 331.273438 320.617188 330.363281 320.617188 C 329.449219 320.617188 328.710938 319.871094 328.710938 318.960938 L 328.710938 284.167969 C 328.710938 283.253906 329.449219 282.511719 330.363281 282.511719 C 331.273438 282.511719 332.015625 283.253906 332.015625 284.167969 L 332.015625 298.25 C 332.015625 299.164062 332.753906 299.90625 333.667969 299.90625 L 350.195312 299.90625 L 350.195312 304.046875 C 348.207031 304.046875 335.632812 304.046875 333.667969 304.046875 Z M 350.195312 318.960938 C 350.195312 319.871094 349.453125 320.617188 348.542969 320.617188 C 347.628906 320.617188 346.886719 319.871094 346.886719 318.960938 L 346.886719 307.363281 L 350.195312 307.363281 Z M 350.195312 318.960938 " fill-opacity="1" fill-rule="nonzero"/></g><g clip-path="url(#cf2d634fa3)"><path fill="#e0a96d" d="M 399.773438 279.195312 C 397.039062 279.195312 394.816406 281.425781 394.816406 284.167969 L 394.816406 296.59375 L 378.289062 296.59375 C 377.375 296.59375 376.636719 297.335938 376.636719 298.25 C 376.636719 298.789062 376.636719 318.371094 376.636719 318.960938 C 376.636719 321.699219 378.859375 323.929688 381.59375 323.929688 C 384.328125 323.929688 386.550781 321.699219 386.550781 318.960938 L 386.550781 307.363281 L 394.816406 307.363281 L 394.816406 318.960938 C 394.816406 321.699219 397.039062 323.929688 399.773438 323.929688 C 402.507812 323.929688 404.730469 321.699219 404.730469 318.960938 L 404.730469 284.167969 C 404.730469 281.425781 402.507812 279.195312 399.773438 279.195312 Z M 383.246094 318.960938 C 383.246094 319.871094 382.503906 320.617188 381.59375 320.617188 C 380.683594 320.617188 379.941406 319.871094 379.941406 318.960938 L 379.941406 307.363281 L 383.246094 307.363281 Z M 401.425781 318.960938 C 401.425781 319.871094 400.683594 320.617188 399.773438 320.617188 C 398.859375 320.617188 398.121094 319.871094 398.121094 318.960938 L 398.121094 305.703125 C 398.121094 304.789062 397.378906 304.046875 396.46875 304.046875 C 394.5 304.046875 381.925781 304.046875 379.941406 304.046875 L 379.941406 299.90625 L 396.46875 299.90625 C 397.378906 299.90625 398.121094 299.164062 398.121094 298.25 L 398.121094 284.167969 C 398.121094 283.253906 398.859375 282.511719 399.773438 282.511719 C 400.683594 282.511719 401.425781 283.253906 401.425781 284.167969 Z M 401.425781 318.960938 " fill-opacity="1" fill-rule="nonzero"/></g><g clip-path="url(#f5e4c57895)"><path fill="#e0a96d" d="M 381.59375 294.109375 C 384.328125 294.109375 386.550781 291.878906 386.550781 289.136719 C 386.550781 286.398438 384.328125 284.167969 381.59375 284.167969 L 348.542969 284.167969 C 345.808594 284.167969 343.582031 286.398438 343.582031 289.136719 C 343.582031 291.878906 345.808594 294.109375 348.542969 294.109375 L 360.109375 294.109375 L 360.109375 318.960938 C 360.109375 321.699219 362.332031 323.929688 365.066406 323.929688 C 367.800781 323.929688 370.023438 321.699219 370.023438 318.960938 L 370.023438 294.109375 Z M 346.886719 289.136719 C 346.886719 288.222656 347.628906 287.480469 348.542969 287.480469 L 381.59375 287.480469 C 382.503906 287.480469 383.246094 288.222656 383.246094 289.136719 C 383.246094 290.050781 382.503906 290.792969 381.59375 290.792969 C 380.074219 290.792969 350.0625 290.792969 348.542969 290.792969 C 347.628906 290.792969 346.886719 290.050781 346.886719 289.136719 Z M 366.71875 318.960938 C 366.71875 319.871094 365.980469 320.617188 365.066406 320.617188 C 364.15625 320.617188 363.414062 319.871094 363.414062 318.960938 L 363.414062 294.109375 L 366.71875 294.109375 Z M 366.71875 318.960938 " fill-opacity="1" fill-rule="nonzero"/></g><g clip-path="url(#6d6adffe66)"><path fill="#553c46" d="M 326.304688 258.816406 L 328.019531 258.816406 L 328.019531 267.339844 C 328.019531 271.097656 331.097656 274.15625 334.882812 274.15625 C 336.929688 274.15625 338.769531 273.261719 340.027344 271.84375 C 342.769531 274.933594 347.582031 274.925781 350.320312 271.84375 C 353.0625 274.933594 357.875 274.925781 360.609375 271.84375 C 363.351562 274.933594 368.164062 274.925781 370.902344 271.84375 C 373.644531 274.933594 378.457031 274.925781 381.191406 271.84375 C 383.933594 274.933594 388.746094 274.925781 391.484375 271.84375 C 392.742188 273.261719 394.582031 274.15625 396.628906 274.15625 C 400.410156 274.15625 403.488281 271.097656 403.488281 267.339844 L 403.488281 258.816406 L 405.203125 258.816406 C 406.152344 258.816406 406.917969 258.054688 406.917969 257.113281 C 406.917969 251.472656 402.304688 246.886719 396.628906 246.886719 L 334.882812 246.886719 C 329.207031 246.886719 324.589844 251.472656 324.589844 257.113281 C 324.589844 258.054688 325.359375 258.816406 326.304688 258.816406 Z M 334.882812 270.75 C 332.992188 270.75 331.453125 269.21875 331.453125 267.339844 L 331.453125 258.816406 L 338.3125 258.816406 L 338.3125 267.339844 C 338.3125 269.21875 336.773438 270.75 334.882812 270.75 Z M 345.171875 270.75 C 343.28125 270.75 341.742188 269.21875 341.742188 267.339844 L 341.742188 258.816406 L 348.605469 258.816406 L 348.605469 267.339844 C 348.605469 269.21875 347.066406 270.75 345.171875 270.75 Z M 355.464844 270.75 C 353.574219 270.75 352.035156 269.21875 352.035156 267.339844 L 352.035156 258.816406 L 358.894531 258.816406 L 358.894531 267.339844 C 358.894531 269.21875 357.355469 270.75 355.464844 270.75 Z M 365.753906 270.75 C 363.863281 270.75 362.324219 269.21875 362.324219 267.339844 L 362.324219 258.816406 L 369.1875 258.816406 L 369.1875 267.339844 C 369.1875 269.21875 367.648438 270.75 365.753906 270.75 Z M 376.046875 270.75 C 374.15625 270.75 372.617188 269.21875 372.617188 267.339844 L 372.617188 258.816406 L 379.476562 258.816406 L 379.476562 267.339844 C 379.476562 269.21875 377.9375 270.75 376.046875 270.75 Z M 386.335938 270.75 C 384.445312 270.75 382.90625 269.21875 382.90625 267.339844 L 382.90625 258.816406 L 389.769531 258.816406 L 389.769531 267.339844 C 389.769531 269.21875 388.230469 270.75 386.335938 270.75 Z M 400.058594 267.339844 C 400.058594 269.21875 398.519531 270.75 396.628906 270.75 C 394.738281 270.75 393.199219 269.21875 393.199219 267.339844 L 393.199219 258.816406 L 400.058594 258.816406 Z M 334.882812 250.292969 L 396.628906 250.292969 C 399.820312 250.292969 402.507812 252.46875 403.273438 255.40625 C 377.667969 255.40625 354.378906 255.40625 328.238281 255.40625 C 329.003906 252.46875 331.691406 250.292969 334.882812 250.292969 Z M 334.882812 250.292969 " fill-opacity="1" fill-rule="nonzero"/></g></svg>